<svg id="Layer_1" xmlns="http://www.w3.org/2000/svg" viewBox="0 0 1111.95 203.07"><defs><style>
      .cls-1 {
        fill: #fff;
      }
    </style></defs><g><path class="cls-1" d="M277.34,203.07h-.14c-1.84,0-3.31-1.5-3.31-3.3,0-.58.15-1.14.44-1.62l24.6-34.69c11.95-17.08,13.81-18.78,13.81-36.28l.02-120.46c0-3.7,2.98-6.7,6.67-6.7h20.08c3.69,0,6.69,3,6.69,6.7v124.58c0,17.85-5.43,25.49-16.56,41.14l-20.81,28.15c-1.24,1.52-2.72,2.48-4.81,2.48h-26.7Z"></path><path class="cls-1" d="M91.12,73.98c0-.92.76-1.39.76-1.39,6.87-4.15,17.13-14.4,17.13-31.55C109.02,13,84.87,0,62.82,0H6.72C3.01,0,0,2.98,0,6.69v137.24c0,3.7,3.01,6.69,6.72,6.69h59.76c22.74,0,47.15-13.27,47.15-40.09,0-21.19-14.02-31.29-21.71-35.16,0,0-.79-.48-.79-1.39M33.46,28.46c0-1.85,1.53-3.35,3.35-3.35h13.77c8.83,0,23.71,2.05,23.71,17.81s-16.31,17.36-22.89,17.36h-14.59c-1.82,0-3.35-1.48-3.35-3.33v-28.48ZM63.49,124.6c-2.97.48-7.7.7-11.28.7h-15.4c-1.85,0-3.35-1.47-3.35-3.32v-29.53c0-1.86,1.5-3.35,3.35-3.35h16.23c3.15,0,7.62.3,10.45.92,2.82.62,14.52,3.36,14.52,18.01,0,11.91-11.56,16.08-14.52,16.57"></path><path class="cls-1" d="M237.62,61.09c.3-.44.79-.72,1.33-.72.89,0,1.59.72,1.59,1.6l.02,81.95c0,3.71,2.98,6.68,6.69,6.68h20.07c3.69,0,6.69-2.97,6.69-6.68V6.71c0-3.7-3.01-6.7-6.69-6.7h-21.25c-2.3,0-4.35,1.17-5.56,2.97l-33.74,47.24c-.29.39-.75.64-1.26.64-.55,0-1.01-.26-1.31-.65L170.52,2.99c-1.22-1.8-3.26-2.97-5.59-2.97h-20.65c-4.25,0-7.29,2.64-7.29,6.9v137.01c0,3.71,2.99,6.68,6.69,6.68h20.06c3.7,0,6.69-2.97,6.69-6.68l-.02-81.95c0-.88.72-1.6,1.62-1.6.54,0,1.02.28,1.32.72l24.7,34.93c1.23,1.62,3.18,2.67,5.37,2.67h3.95c2.2,0,4.16-1.05,5.39-2.67l24.85-34.93Z"></path></g><g><path class="cls-1" d="M402.48,141.96V6.6h16.24v121.36h62.71v14h-78.95Z"></path><path class="cls-1" d="M506.19,92.65c0,12.18,2.77,21.72,8.32,28.62,5.55,6.9,13.6,10.35,24.15,10.35,6.09,0,11.23-1.49,15.42-4.46,4.19-2.98,7.58-6.63,10.15-10.96l10.35,6.9c-3.52,6.09-8.09,11.13-13.7,15.12-5.62,3.99-13.16,5.99-22.63,5.99-7.31,0-13.87-1.11-19.69-3.35-5.82-2.23-10.79-5.48-14.91-9.74-4.13-4.26-7.31-9.57-9.54-15.93-2.23-6.36-3.35-13.73-3.35-22.12,0-7.71,1.05-14.64,3.14-20.8,2.1-6.15,5-11.43,8.73-15.83,3.72-4.4,8.25-7.78,13.6-10.15,5.34-2.37,11.26-3.55,17.76-3.55,7.17,0,13.42,1.22,18.77,3.65,5.34,2.44,9.77,5.85,13.29,10.25,3.52,4.4,6.16,9.68,7.91,15.83,1.76,6.16,2.64,12.89,2.64,20.19h-70.42ZM558.95,80.27c-.13-4.19-.95-7.88-2.44-11.06-1.49-3.18-3.38-5.82-5.68-7.91-2.3-2.1-4.94-3.65-7.91-4.67-2.98-1.01-5.96-1.52-8.93-1.52-6.49,0-12.08,1.93-16.74,5.78-4.67,3.86-7.88,10.32-9.64,19.38h51.34Z"></path><path class="cls-1" d="M652.31,141.96l-.81-8.32c-3.39,3.38-7.27,5.99-11.67,7.81-4.4,1.83-9.23,2.74-14.51,2.74-4.2,0-8.29-.64-12.28-1.93s-7.51-3.18-10.55-5.68c-3.04-2.5-5.51-5.65-7.4-9.44-1.9-3.79-2.84-8.19-2.84-13.19,0-6.9,1.86-12.58,5.58-17.05,3.72-4.46,8.42-8.02,14.1-10.66,5.68-2.64,11.97-4.5,18.87-5.58,6.9-1.08,13.6-1.62,20.09-1.62v-1.22c0-8.12-1.73-13.93-5.17-17.45-3.45-3.52-8.42-5.28-14.92-5.28-4.46,0-8.56.98-12.28,2.94-3.72,1.96-6.87,4.57-9.44,7.81l-10.96-7.71c3.92-5.28,8.55-9.16,13.9-11.67,5.35-2.5,12.08-3.75,20.2-3.75,10.82,0,19.24,2.77,25.26,8.32,6.02,5.55,9.03,14.81,9.03,27.8v63.12h-14.21ZM650.89,91.43c-4.47.14-9.2.48-14.21,1.02-5.01.54-9.64,1.59-13.9,3.14-4.26,1.56-7.78,3.82-10.55,6.8-2.78,2.98-4.16,6.9-4.16,11.77,0,3.11.61,5.75,1.83,7.92,1.22,2.16,2.74,3.96,4.57,5.38,1.83,1.42,3.86,2.44,6.09,3.04,2.23.61,4.43.91,6.59.91,4.73,0,9.1-.98,13.09-2.94,3.99-1.96,7.54-4.29,10.66-7v-30.04Z"></path><path class="cls-1" d="M693.9,141.96V45.16h14.21l1.22,8.52c2.57-2.7,5.89-5.21,9.95-7.51,4.06-2.3,8.18-3.45,12.38-3.45,2.98,0,5.71.2,8.22.61,2.5.41,4.43.81,5.78,1.22l-2.84,14.41c-3.38-1.49-7.64-2.23-12.78-2.23-3.93,0-7.68,1.08-11.27,3.25-3.58,2.17-6.67,4.4-9.23,6.7v75.29h-15.63Z"></path><path class="cls-1" d="M759.25,141.96V45.16h14.41l1.02,7.71c3.92-2.98,8.56-5.41,13.9-7.31,5.34-1.89,10.92-2.84,16.74-2.84,13.26,0,22.63,3.28,28.11,9.84,5.48,6.56,8.22,16.27,8.22,29.12v60.27h-15.63v-60.68c0-8.12-1.83-14.48-5.48-19.08-3.65-4.6-9.61-6.9-17.86-6.9-5.14,0-10.18,1.12-15.12,3.35-4.94,2.23-9.17,4.7-12.69,7.41v75.9h-15.63Z"></path><path class="cls-1" d="M876.96,29.74c-2.84,0-5.28-1.12-7.31-3.35-2.03-2.23-3.04-4.97-3.04-8.22s1.02-5.82,3.04-8.12c2.03-2.3,4.47-3.45,7.31-3.45s5.27,1.15,7.31,3.45c2.03,2.3,3.04,5.01,3.04,8.12s-1.02,5.99-3.04,8.22c-2.03,2.23-4.47,3.35-7.31,3.35ZM869.04,141.96V45.16h15.83v96.8h-15.83Z"></path><path class="cls-1" d="M912.87,141.96V45.16h14.41l1.02,7.71c3.92-2.98,8.56-5.41,13.9-7.31,5.34-1.89,10.92-2.84,16.74-2.84,13.26,0,22.63,3.28,28.11,9.84,5.48,6.56,8.22,16.27,8.22,29.12v60.27h-15.63v-60.68c0-8.12-1.83-14.48-5.48-19.08-3.65-4.6-9.61-6.9-17.86-6.9-5.14,0-10.18,1.12-15.12,3.35-4.94,2.23-9.17,4.7-12.69,7.41v75.9h-15.63Z"></path><path class="cls-1" d="M1095.32,55.31c2.44,2.71,4.39,5.78,5.88,9.23,1.49,3.45,2.23,7.34,2.23,11.67,0,5.68-1.19,10.65-3.55,14.91-2.37,4.26-5.52,7.81-9.44,10.66-3.92,2.84-8.45,4.94-13.59,6.29-5.14,1.35-10.42,2.03-15.83,2.03-1.76,0-3.96-.13-6.59-.41-2.64-.27-4.7-.54-6.19-.81-2.16.27-4.2.98-6.09,2.13-1.9,1.15-2.84,2.67-2.84,4.57,0,2.16,1.59,3.75,4.77,4.77,3.18,1.01,8.96,1.59,17.35,1.73,8.12.14,15.29.68,21.51,1.62,6.22.95,11.5,2.51,15.83,4.67,4.33,2.16,7.61,5.11,9.84,8.83,2.23,3.72,3.35,8.42,3.35,14.1,0,5.28-1.22,9.88-3.65,13.8-2.44,3.92-5.75,7.2-9.94,9.84-4.2,2.64-9.1,4.63-14.71,5.99-5.62,1.35-11.54,2.03-17.76,2.03-15.56,0-27.63-2.37-36.22-7.1-8.6-4.74-12.89-12.18-12.89-22.32s4.73-18.13,14.2-23.14c-2.44-1.08-4.46-2.57-6.09-4.46-1.62-1.89-2.44-4.33-2.44-7.31,0-3.79,1.45-6.9,4.36-9.34,2.91-2.44,6.53-4.19,10.86-5.28-1.62-.81-3.49-1.96-5.58-3.45-2.1-1.49-4.06-3.38-5.89-5.68-1.83-2.3-3.35-4.97-4.57-8.02-1.22-3.04-1.83-6.6-1.83-10.65,0-5.68,1.18-10.62,3.55-14.82,2.37-4.19,5.51-7.68,9.44-10.45,3.92-2.77,8.36-4.84,13.29-6.19,4.94-1.35,9.98-2.03,15.12-2.03,4.06,0,8.02.37,11.87,1.12,3.85.74,7.54,1.93,11.06,3.55l14.41-14.41,9.95,9.13-13.19,13.19ZM1061.22,135.47c-9.07-.27-15.29-.68-18.67-1.22-3.52,1.76-6.36,4.06-8.53,6.9-2.16,2.84-3.25,6.49-3.25,10.96,0,3.11.88,5.82,2.64,8.12,1.76,2.3,4.19,4.23,7.31,5.78,3.11,1.55,6.8,2.74,11.06,3.55,4.27.81,8.96,1.22,14.1,1.22,9.34,0,16.95-1.69,22.83-5.07,5.89-3.38,8.83-7.91,8.83-13.6,0-2.84-.54-5.28-1.62-7.31-1.08-2.03-3.01-3.72-5.79-5.07-2.77-1.35-6.49-2.37-11.16-3.05-4.67-.68-10.59-1.08-17.76-1.22ZM1036.87,84.33c1.22,2.57,2.94,4.87,5.17,6.9,2.23,2.03,4.9,3.65,8.02,4.87s6.63,1.83,10.55,1.83c3.25,0,6.46-.37,9.64-1.12,3.18-.74,6.09-1.96,8.73-3.65,2.64-1.69,4.77-3.96,6.39-6.8,1.62-2.84,2.44-6.29,2.44-10.35,0-3.38-.75-6.39-2.23-9.03-1.49-2.64-3.45-4.8-5.88-6.49-2.44-1.69-5.25-2.97-8.42-3.86-3.18-.88-6.46-1.32-9.84-1.32s-6.46.44-9.64,1.32c-3.18.88-5.98,2.17-8.42,3.86-2.44,1.69-4.4,3.86-5.89,6.49-1.49,2.64-2.23,5.72-2.23,9.23,0,2.84.54,5.55,1.62,8.12Z"></path></g></svg>