<?xml version="1.0" encoding="utf-8"?>
<!-- Generator: Adobe Illustrator 19.0.0, SVG Export Plug-In . SVG Version: 6.00 Build 0)  -->
<svg version="1.1" baseProfile="basic" id="Layer_1"
	 xmlns="http://www.w3.org/2000/svg" xmlns:xlink="http://www.w3.org/1999/xlink" x="0px" y="0px" viewBox="0 0 500 77.4"
	 xml:space="preserve">
<style type="text/css">
	.st0{fill:#001427;}
	.st1{opacity:0.6;fill:#001427;}
</style>
<g id="XMLID_265_">
	<g id="XMLID_99_">
		<path id="XMLID_100_" class="st0" d="M146.9,18.4l-18.3,43.1h-11.5L98.8,18.4h11.6l5.9,14.2l6.6,18.1l6.5-17.9l5.9-14.3H146.9z"/>
		<path id="XMLID_102_" class="st0" d="M163.6,6.4c0,8.3-12.5,8.3-12.5,0C151-1.8,163.6-1.8,163.6,6.4z M152,18.3v43h10.6v-43H152z"
			/>
		<path id="XMLID_105_" class="st0" d="M200.2,29.9c-3-2.9-6.5-3.8-10.6-3.8c-5,0-7.8,1.6-7.8,4.3c0,2.8,2.5,4.3,8,4.7
			c8.1,0.5,18.3,2.3,18.3,13.7c0,7.6-6.2,14.1-18.4,14.1c-6.8,0-13.6-1.1-19.8-7.6l5.2-7.6c3,3.4,10,5.9,14.8,6c4,0.1,7.7-2,7.7-5.1
			c0-3-2.4-4.2-8.5-4.5c-8.1-0.6-17.7-3.6-17.7-13.3c0-9.9,10.3-13.4,18.1-13.4c6.7,0,11.7,1.3,16.7,5.7L200.2,29.9z"/>
		<path id="XMLID_107_" class="st0" d="M224,18.5v22.4c0,6.5,3.6,11.5,10.3,11.5c6.5,0,11-5.5,11-12V18.5h10.5v42.9h-9.5l-0.7-5.8
			c-4.4,4.3-8.5,6.4-14.5,6.4c-10.3,0-17.7-7.7-17.7-21V18.5H224z"/>
		<path id="XMLID_109_" class="st0" d="M297.4,18.5h10.2v42.9h-10l-0.5-6.3c-2.4,5-9.1,7.5-13.9,7.6c-12.7,0.1-22.1-7.7-22.1-22.8
			c0-14.8,9.8-22.5,22.3-22.4c5.7,0,11.2,2.7,13.6,7L297.4,18.5z M271.7,39.9c0,8.2,5.7,13,12.7,13c16.7,0,16.7-26,0-26
			C277.4,26.9,271.7,31.7,271.7,39.9z"/>
		<path id="XMLID_114_" class="st0" d="M327.1,0.6v60.8h-10.5V0.6H327.1z"/>
		<path id="XMLID_116_" class="st0" d="M346.2,25.2h-8.4V19h8.4v-3.4c0-9.8,5.4-15.6,14.4-15.6c3.5,0,6.8,1.1,9.7,3.1l-3,5.3
			c-2.3-1.4-4.2-2.2-6.6-2.2c-4.6,0-7.6,2.9-7.6,9.3V19h13.5v6.3h-13.5v36.3c0,9.8-4.7,15.6-13.7,15.6c-3.5,0-6-1-9-3l2.9-5.2
			c2.2,1.7,3.4,2.1,5.7,2.1c4.6,0,7-3,7-9.6L346.2,25.2L346.2,25.2z"/>
		<path id="XMLID_118_" class="st0" d="M382.6,61.4h-7.1V0.5h7.1V61.4z"/>
		<path id="XMLID_120_" class="st0" d="M412.1,17.5c13.1,0,22.3,9.2,22.3,22.5c0,13-9.4,22.2-22.3,22.2c-12.9,0-22.3-9.1-22.3-22.2
			C389.9,26.7,399.3,17.5,412.1,17.5z M412.2,24c-8.8,0-15.2,6.4-15.2,16c0,9,6.3,15.5,15.1,15.5c8.9,0,15.2-6.4,15.3-15.5
			C427.4,30.4,420.8,24,412.2,24z"/>
		<path id="XMLID_123_" class="st0" d="M440.5,18.4L452,53.8l11.4-35.4h5.8l11.4,35.4l11.6-35.4h7.8l-15,43h-8.2l-5.8-16l-4.6-15.6
			l-4.7,15.6l-5.8,16h-8.1l-15.2-43H440.5z"/>
	</g>
	<g id="XMLID_56_">
		<path id="XMLID_55_" class="st1" d="M43.6,70.6c9,0,17.5,2.5,24.7,6.7l19.3-33.2c-5.1-1-13-1.9-22,0
			c-18.3,3.9-23.9,15.8-36.8,16.4C22.2,60.9,12.5,58.4,0,44l19,33.2C26.2,73.1,34.6,70.6,43.6,70.6z"/>
		<path id="XMLID_49_" class="st1" d="M69.5,26.4C65,18.5,62.9,10,63,1.6L24.6,1.5c1.7,4.9,4.8,12.2,11,19.1
			c12.5,13.9,25.6,12.9,32.6,23.6c3.6,5.5,6.2,15.2,0,33.1l19.3-33.1C80.3,40.2,74,34.1,69.5,26.4z"/>
		<path id="XMLID_54_" class="st1" d="M18.2,26C13.7,33.8,7.3,39.9,0,44l19.1,33.3c3.4-3.9,8.2-10.3,11-19.1
			c5.8-17.8-1.7-28.6,4.1-40c3-5.9,10-13,28.7-16.6L24.7,1.4C24.8,9.8,22.7,18.3,18.2,26z"/>
	</g>
</g>
</svg>
