<?xml version="1.0" encoding="utf-8"?>
<!-- Generator: Adobe Illustrator 19.0.0, SVG Export Plug-In . SVG Version: 6.00 Build 0)  -->
<svg version="1.1" baseProfile="basic" id="Layer_1"
	 xmlns="http://www.w3.org/2000/svg" xmlns:xlink="http://www.w3.org/1999/xlink" x="0px" y="0px" viewBox="-47 382.5 500 77.4"
	 xml:space="preserve">
<style type="text/css">
	.st0{fill:#FFFFFF;}
	.st1{opacity:0.6;fill:#0086FF;}
</style>
<g>
	<g id="XMLID_99_">
		<path id="XMLID_100_" class="st0" d="M99.9,400.9L81.6,444H70.1l-18.3-43.1h11.6l5.9,14.2l6.6,18.1l6.5-17.9l5.9-14.3L99.9,400.9
			L99.9,400.9z"/>
		<path id="XMLID_102_" class="st0" d="M116.6,388.9c0,8.3-12.5,8.3-12.5,0C104,380.7,116.6,380.7,116.6,388.9z M105,400.8v43h10.6
			v-43H105z"/>
		<path id="XMLID_105_" class="st0" d="M153.2,412.4c-3-2.9-6.5-3.8-10.6-3.8c-5,0-7.8,1.6-7.8,4.3c0,2.8,2.5,4.3,8,4.7
			c8.1,0.5,18.3,2.3,18.3,13.7c0,7.6-6.2,14.1-18.4,14.1c-6.8,0-13.6-1.1-19.8-7.6l5.2-7.6c3,3.4,10,5.9,14.8,6c4,0.1,7.7-2,7.7-5.1
			c0-3-2.4-4.2-8.5-4.5c-8.1-0.6-17.7-3.6-17.7-13.3c0-9.9,10.3-13.4,18.1-13.4c6.7,0,11.7,1.3,16.7,5.7L153.2,412.4z"/>
		<path id="XMLID_107_" class="st0" d="M177,401v22.4c0,6.5,3.6,11.5,10.3,11.5c6.5,0,11-5.5,11-12V401h10.5v42.9h-9.5l-0.7-5.8
			c-4.4,4.3-8.5,6.4-14.5,6.4c-10.3,0-17.7-7.7-17.7-21V401H177z"/>
		<path id="XMLID_109_" class="st0" d="M250.4,401h10.2v42.9h-10l-0.5-6.3c-2.4,5-9.1,7.5-13.9,7.6c-12.7,0.1-22.1-7.7-22.1-22.8
			c0-14.8,9.8-22.5,22.3-22.4c5.7,0,11.2,2.7,13.6,7L250.4,401z M224.7,422.4c0,8.2,5.7,13,12.7,13c16.7,0,16.7-26,0-26
			C230.4,409.4,224.7,414.2,224.7,422.4z"/>
		<path id="XMLID_114_" class="st0" d="M280.1,383.1v60.8h-10.5v-60.8H280.1z"/>
		<path id="XMLID_116_" class="st0" d="M299.2,407.7h-8.4v-6.2h8.4v-3.4c0-9.8,5.4-15.6,14.4-15.6c3.5,0,6.8,1.1,9.7,3.1l-3,5.3
			c-2.3-1.4-4.2-2.2-6.6-2.2c-4.6,0-7.6,2.9-7.6,9.3v3.5h13.5v6.3h-13.5v36.3c0,9.8-4.7,15.6-13.7,15.6c-3.5,0-6-1-9-3l2.9-5.2
			c2.2,1.7,3.4,2.1,5.7,2.1c4.6,0,7-3,7-9.6L299.2,407.7L299.2,407.7z"/>
		<path id="XMLID_118_" class="st0" d="M335.6,443.9h-7.1V383h7.1V443.9z"/>
		<path id="XMLID_120_" class="st0" d="M365.1,400c13.1,0,22.3,9.2,22.3,22.5c0,13-9.4,22.2-22.3,22.2s-22.3-9.1-22.3-22.2
			C342.9,409.2,352.3,400,365.1,400z M365.2,406.5c-8.8,0-15.2,6.4-15.2,16c0,9,6.3,15.5,15.1,15.5c8.9,0,15.2-6.4,15.3-15.5
			C380.4,412.9,373.8,406.5,365.2,406.5z"/>
		<path id="XMLID_123_" class="st0" d="M393.5,400.9l11.5,35.4l11.4-35.4h5.8l11.4,35.4l11.6-35.4h7.8l-15,43h-8.2l-5.8-16
			l-4.6-15.6l-4.7,15.6l-5.8,16h-8.1l-15.2-43C385.6,400.9,393.5,400.9,393.5,400.9z"/>
	</g>
	<g id="XMLID_56_">
		<path id="XMLID_55_" class="st1" d="M-3.4,453.1c9,0,17.5,2.5,24.7,6.7l19.3-33.2c-5.1-1-13-1.9-22,0
			C0.3,430.5-5.3,442.4-18.2,443c-6.6,0.4-16.3-2.1-28.8-16.5l19,33.2C-20.8,455.6-12.4,453.1-3.4,453.1z"/>
		<path id="XMLID_49_" class="st1" d="M22.5,408.9c-4.5-7.9-6.6-16.4-6.5-24.8l-38.4-0.1c1.7,4.9,4.8,12.2,11,19.1
			C1.1,417,14.2,416,21.2,426.7c3.6,5.5,6.2,15.2,0,33.1l19.3-33.1C33.3,422.7,27,416.6,22.5,408.9z"/>
		<path id="XMLID_54_" class="st1" d="M-28.8,408.5c-4.5,7.8-10.9,13.9-18.2,18l19.1,33.3c3.4-3.9,8.2-10.3,11-19.1
			c5.8-17.8-1.7-28.6,4.1-40c3-5.9,10-13,28.7-16.6l-38.2-0.2C-22.2,392.3-24.3,400.8-28.8,408.5z"/>
	</g>
</g>
</svg>
