<?xml version="1.0" encoding="UTF-8"?>
<svg xmlns="http://www.w3.org/2000/svg" version="1.1" viewBox="0 0 500 77.4">
  <defs>
    <style>
      .cls-1 {
        fill: #0369a1;
        isolation: isolate;
        opacity: .6;
      }

      .cls-2 {
        fill: #001427;
      }
    </style>
  </defs>
  <!-- Generator: Adobe Illustrator 28.7.1, SVG Export Plug-In . SVG Version: 1.2.0 Build 142)  -->
  <g>
    <g id="Layer_1">
      <g>
        <g>
          <path class="cls-2" d="M146.9,18.4l-18.3,43.1h-11.5l-18.3-43.1h11.6l5.9,14.2,6.6,18.1,6.5-17.9,5.9-14.3h11.6Z"/>
          <path class="cls-2" d="M163.6,6.4c0,8.3-12.5,8.3-12.5,0-.1-8.2,12.5-8.2,12.5,0ZM152,18.3v43h10.6V18.3h-10.6Z"/>
          <path class="cls-2" d="M200.2,29.9c-3-2.9-6.5-3.8-10.6-3.8s-7.8,1.6-7.8,4.3,2.5,4.3,8,4.7c8.1.5,18.3,2.3,18.3,13.7s-6.2,14.1-18.4,14.1-13.6-1.1-19.8-7.6l5.2-7.6c3,3.4,10,5.9,14.8,6,4,0,7.7-2,7.7-5.1s-2.4-4.2-8.5-4.5c-8.1-.6-17.7-3.6-17.7-13.3s10.3-13.4,18.1-13.4,11.7,1.3,16.7,5.7l-6,6.8Z"/>
          <path class="cls-2" d="M224,18.5v22.4c0,6.5,3.6,11.5,10.3,11.5s11-5.5,11-12v-21.9h10.5v42.9h-9.5l-.7-5.8c-4.4,4.3-8.5,6.4-14.5,6.4-10.3,0-17.7-7.7-17.7-21v-22.5h10.6Z"/>
          <path class="cls-2" d="M297.4,18.5h10.2v42.9h-10l-.5-6.3c-2.4,5-9.1,7.5-13.9,7.6-12.7,0-22.1-7.7-22.1-22.8s9.8-22.5,22.3-22.4c5.7,0,11.2,2.7,13.6,7l.4-6ZM271.7,39.9c0,8.2,5.7,13,12.7,13,16.7,0,16.7-26,0-26-7,0-12.7,4.8-12.7,13Z"/>
          <path class="cls-2" d="M327.1.6v60.8h-10.5V.6h10.5Z"/>
          <path class="cls-2" d="M346.2,25.2h-8.4v-6.2h8.4v-3.4C346.2,5.8,351.6,0,360.6,0s6.8,1.1,9.7,3.1l-3,5.3c-2.3-1.4-4.2-2.2-6.6-2.2-4.6,0-7.6,2.9-7.6,9.3v3.5h13.5v6.3h-13.5v36.3c0,9.8-4.7,15.6-13.7,15.6s-6-1-9-3l2.9-5.2c2.2,1.7,3.4,2.1,5.7,2.1,4.6,0,7-3,7-9.6l.2-36.3h0Z"/>
          <path class="cls-2" d="M382.6,61.4h-7.1V.5h7.1v60.9Z"/>
          <path class="cls-2" d="M412.1,17.5c13.1,0,22.3,9.2,22.3,22.5s-9.4,22.2-22.3,22.2-22.3-9.1-22.3-22.2c0-13.3,9.5-22.5,22.3-22.5ZM412.2,24c-8.8,0-15.2,6.4-15.2,16s6.3,15.5,15.1,15.5,15.2-6.4,15.3-15.5c0-9.6-6.6-16-15.2-16Z"/>
          <path class="cls-2" d="M440.5,18.4l11.5,35.4,11.4-35.4h5.8l11.4,35.4,11.6-35.4h7.8l-15,43h-8.2l-5.8-16-4.6-15.6-4.7,15.6-5.8,16h-8.1l-15.2-43s7.9,0,7.9,0Z"/>
        </g>
        <g>
          <path class="cls-1" d="M43.6,70.6c9,0,17.5,2.5,24.7,6.7l19.3-33.2c-5.1-1-13-1.9-22,0-18.3,3.9-23.9,15.8-36.8,16.4-6.6.4-16.3-2.1-28.8-16.5l19,33.2c7.2-4.1,15.6-6.6,24.6-6.6Z"/>
          <path class="cls-1" d="M69.5,26.4c-4.5-7.9-6.6-16.4-6.5-24.8H24.6c1.7,4.8,4.8,12.1,11,19,12.5,13.9,25.6,12.9,32.6,23.6,3.6,5.5,6.2,15.2,0,33.1l19.3-33.1c-7.2-4-13.5-10.1-18-17.8Z"/>
          <path class="cls-1" d="M18.2,26c-4.5,7.8-10.9,13.9-18.2,18l19.1,33.3c3.4-3.9,8.2-10.3,11-19.1,5.8-17.8-1.7-28.6,4.1-40,3-5.9,10-13,28.7-16.6l-38.2-.2c0,8.4-2,16.9-6.5,24.6Z"/>
        </g>
      </g>
    </g>
  </g>
</svg>